<?xml version="1.0" standalone="no"?><!DOCTYPE svg PUBLIC "-//W3C//DTD SVG 1.1//EN" "http://www.w3.org/Graphics/SVG/1.1/DTD/svg11.dtd"><svg t="1767688967727" class="icon" viewBox="0 0 1024 1024" version="1.1" xmlns="http://www.w3.org/2000/svg" p-id="3103" xmlns:xlink="http://www.w3.org/1999/xlink" width="200" height="200"><path d="M355.712 149.44c40.128 0 77.568 20.16 99.392 53.312l31.36 46.464c6.4 9.728 17.28 15.552 29.376 15.424h303.36c65.92 0 119.36 53.44 119.36 119.36v384c0 65.92-53.44 119.36-119.36 119.36H204.8A119.36 119.36 0 0 1 85.44 768V268.8c0-65.92 53.44-119.36 119.36-119.36h150.912z m0 85.12H204.8a34.24 34.24 0 0 0-34.24 34.24V768c0 18.88 15.36 34.24 34.24 34.24h614.4c18.88 0 34.24-15.36 34.24-34.24V384a34.24 34.24 0 0 0-34.24-34.24H516.288a119.168 119.168 0 0 1-100.608-53.312l-31.36-46.464a34.24 34.24 0 0 0-28.608-15.424z" p-id="3104"></path><path d="M597.12 469.12a42.56 42.56 0 0 1 60.16 60.16l-153.6 153.6c-16.64 16.64-43.52 16.64-60.16 0l-76.8-76.8a42.56 42.56 0 0 1 60.16-60.16l46.72 46.656 123.52-123.52z" p-id="3105"></path></svg>